<?xml version="1.0" encoding="UTF-8" standalone="no"?>
<!DOCTYPE svg PUBLIC "-//W3C//DTD SVG 1.1//EN"
 "http://www.w3.org/Graphics/SVG/1.1/DTD/svg11.dtd">
<!-- Generated by graphviz version 2.40.1 (20161225.0304)
 -->
<!-- Title: state transitions Pages: 1 -->
<svg width="539pt" height="446pt"
 viewBox="0.00 0.00 539.00 446.00" xmlns="http://www.w3.org/2000/svg" xmlns:xlink="http://www.w3.org/1999/xlink">
<g id="graph0" class="graph" transform="scale(1 1) rotate(0) translate(4 442)">
<title>state transitions</title>
<polygon fill="#ffffff" stroke="transparent" points="-4,4 -4,-442 535,-442 535,4 -4,4"/>
<g id="clust1" class="cluster state regular">
<title>cluster_s_rx_fsm</title>
<path fill="none" stroke="#000000" stroke-width="2" d="M20,-8C20,-8 511,-8 511,-8 517,-8 523,-14 523,-20 523,-20 523,-418 523,-418 523,-424 517,-430 511,-430 511,-430 20,-430 20,-430 14,-430 8,-424 8,-418 8,-418 8,-20 8,-20 8,-14 14,-8 20,-8"/>
<text text-anchor="start" x="241.167" y="-411.2" font-family="Helvetica,sans-Serif" font-size="12.00" fill="#000000">s_rx_fsm</text>
</g>
<!-- s_rx_fsm -->
<!-- IDLE -->
<g id="node2" class="node state regular">
<title>IDLE</title>
<polygon fill="#ffffff" fill-opacity="0.003922" stroke="transparent" stroke-width="2" points="96,-392 40,-392 40,-356 96,-356 96,-392"/>
<text text-anchor="start" x="54.6644" y="-370.2" font-family="Helvetica,sans-Serif" font-size="12.00" fill="#000000">IDLE</text>
<path fill="none" stroke="#000000" stroke-width="2" d="M52.3333,-357C52.3333,-357 83.6667,-357 83.6667,-357 89.3333,-357 95,-362.6667 95,-368.3333 95,-368.3333 95,-379.6667 95,-379.6667 95,-385.3333 89.3333,-391 83.6667,-391 83.6667,-391 52.3333,-391 52.3333,-391 46.6667,-391 41,-385.3333 41,-379.6667 41,-379.6667 41,-368.3333 41,-368.3333 41,-362.6667 46.6667,-357 52.3333,-357"/>
</g>
<!-- START -->
<g id="node3" class="node state regular">
<title>START</title>
<polygon fill="#ffffff" fill-opacity="0.003922" stroke="transparent" stroke-width="2" points="98.5,-310 37.5,-310 37.5,-274 98.5,-274 98.5,-310"/>
<text text-anchor="start" x="48.835" y="-288.2" font-family="Helvetica,sans-Serif" font-size="12.00" fill="#000000">START</text>
<path fill="none" stroke="#000000" stroke-width="2" d="M49.8333,-275C49.8333,-275 86.1667,-275 86.1667,-275 91.8333,-275 97.5,-280.6667 97.5,-286.3333 97.5,-286.3333 97.5,-297.6667 97.5,-297.6667 97.5,-303.3333 91.8333,-309 86.1667,-309 86.1667,-309 49.8333,-309 49.8333,-309 44.1667,-309 38.5,-303.3333 38.5,-297.6667 38.5,-297.6667 38.5,-286.3333 38.5,-286.3333 38.5,-280.6667 44.1667,-275 49.8333,-275"/>
</g>
<!-- IDLE&#45;&gt;START -->
<g id="edge1" class="edge transition">
<title>IDLE&#45;&gt;START</title>
<path fill="none" stroke="#000000" d="M68,-355.8015C68,-345.3976 68,-332.1215 68,-320.3768"/>
<polygon fill="#000000" stroke="#000000" points="71.5001,-320.1476 68,-310.1476 64.5001,-320.1476 71.5001,-320.1476"/>
<text text-anchor="middle" x="69.3895" y="-330" font-family="Helvetica,sans-Serif" font-size="10.00" fill="#000000"> </text>
</g>
<!-- START&#45;&gt;START -->
<g id="edge3" class="edge transition">
<title>START&#45;&gt;START</title>
<path fill="none" stroke="#000000" d="M98.7377,-296.856C110.6221,-297.0718 120.5,-295.4531 120.5,-292 120.5,-289.626 115.8311,-288.119 109.0512,-287.4792"/>
<polygon fill="#000000" stroke="#000000" points="108.8461,-283.9707 98.7377,-287.144 108.6187,-290.967 108.8461,-283.9707"/>
<text text-anchor="start" x="120.5" y="-289" font-family="Helvetica,sans-Serif" font-size="10.00" fill="#000000">not (r_rx_shift = x&quot;00&quot;) &#160;&#160;</text>
</g>
<!-- DATA -->
<g id="node4" class="node state regular">
<title>DATA</title>
<polygon fill="#ffffff" fill-opacity="0.003922" stroke="transparent" stroke-width="2" points="96,-228 40,-228 40,-192 96,-192 96,-228"/>
<text text-anchor="start" x="52.0004" y="-206.2" font-family="Helvetica,sans-Serif" font-size="12.00" fill="#000000">DATA</text>
<path fill="none" stroke="#000000" stroke-width="2" d="M52.3333,-193C52.3333,-193 83.6667,-193 83.6667,-193 89.3333,-193 95,-198.6667 95,-204.3333 95,-204.3333 95,-215.6667 95,-215.6667 95,-221.3333 89.3333,-227 83.6667,-227 83.6667,-227 52.3333,-227 52.3333,-227 46.6667,-227 41,-221.3333 41,-215.6667 41,-215.6667 41,-204.3333 41,-204.3333 41,-198.6667 46.6667,-193 52.3333,-193"/>
</g>
<!-- START&#45;&gt;DATA -->
<g id="edge2" class="edge transition">
<title>START&#45;&gt;DATA</title>
<path fill="none" stroke="#000000" d="M68,-273.8015C68,-263.3976 68,-250.1215 68,-238.3768"/>
<polygon fill="#000000" stroke="#000000" points="71.5001,-238.1476 68,-228.1476 64.5001,-238.1476 71.5001,-238.1476"/>
<text text-anchor="start" x="68" y="-248" font-family="Helvetica,sans-Serif" font-size="10.00" fill="#000000">r_rx_shift = x&quot;00&quot; &#160;&#160;</text>
</g>
<!-- DATA&#45;&gt;DATA -->
<g id="edge5" class="edge transition">
<title>DATA&#45;&gt;DATA</title>
<path fill="none" stroke="#000000" d="M96.0183,-214.8247C107.888,-215.1883 118,-213.5801 118,-210 118,-207.5387 113.2205,-206.0094 106.3762,-205.4121"/>
<polygon fill="#000000" stroke="#000000" points="106.0957,-201.9049 96.0183,-205.1753 105.9356,-208.903 106.0957,-201.9049"/>
<text text-anchor="start" x="118" y="-207" font-family="Helvetica,sans-Serif" font-size="10.00" fill="#000000">not (s_rx_baud_tick = &#39;1&#39; and r_rx_data_cnt = to_unsigned(7, r_rx_data_cnt&#39;length)) &#160;&#160;</text>
</g>
<!-- STOP -->
<g id="node5" class="node state regular">
<title>STOP</title>
<polygon fill="#ffffff" fill-opacity="0.003922" stroke="transparent" stroke-width="2" points="117,-146 61,-146 61,-110 117,-110 117,-146"/>
<text text-anchor="start" x="72.6644" y="-124.2" font-family="Helvetica,sans-Serif" font-size="12.00" fill="#000000">STOP</text>
<path fill="none" stroke="#000000" stroke-width="2" d="M73.3333,-111C73.3333,-111 104.6667,-111 104.6667,-111 110.3333,-111 116,-116.6667 116,-122.3333 116,-122.3333 116,-133.6667 116,-133.6667 116,-139.3333 110.3333,-145 104.6667,-145 104.6667,-145 73.3333,-145 73.3333,-145 67.6667,-145 62,-139.3333 62,-133.6667 62,-133.6667 62,-122.3333 62,-122.3333 62,-116.6667 67.6667,-111 73.3333,-111"/>
</g>
<!-- DATA&#45;&gt;STOP -->
<g id="edge4" class="edge transition">
<title>DATA&#45;&gt;STOP</title>
<path fill="none" stroke="#000000" d="M72.6606,-191.8015C75.3522,-181.2915 78.7944,-167.8503 81.8247,-156.0177"/>
<polygon fill="#000000" stroke="#000000" points="85.262,-156.7033 84.3524,-146.1476 78.4809,-154.9666 85.262,-156.7033"/>
<text text-anchor="start" x="79" y="-166" font-family="Helvetica,sans-Serif" font-size="10.00" fill="#000000">s_rx_baud_tick = &#39;1&#39; and r_rx_data_cnt = to_unsigned(7, r_rx_data_cnt&#39;length) &#160;&#160;</text>
</g>
<!-- ERROR -->
<g id="node6" class="node state regular">
<title>ERROR</title>
<polygon fill="#ffffff" fill-opacity="0.003922" stroke="transparent" stroke-width="2" points="100.5,-52 35.5,-52 35.5,-16 100.5,-16 100.5,-52"/>
<text text-anchor="start" x="46.837" y="-30.2" font-family="Helvetica,sans-Serif" font-size="12.00" fill="#000000">ERROR</text>
<path fill="none" stroke="#000000" stroke-width="2" d="M47.8333,-17C47.8333,-17 88.1667,-17 88.1667,-17 93.8333,-17 99.5,-22.6667 99.5,-28.3333 99.5,-28.3333 99.5,-39.6667 99.5,-39.6667 99.5,-45.3333 93.8333,-51 88.1667,-51 88.1667,-51 47.8333,-51 47.8333,-51 42.1667,-51 36.5,-45.3333 36.5,-39.6667 36.5,-39.6667 36.5,-28.3333 36.5,-28.3333 36.5,-22.6667 42.1667,-17 47.8333,-17"/>
</g>
<!-- STOP&#45;&gt;ERROR -->
<g id="edge7" class="edge transition">
<title>STOP&#45;&gt;ERROR</title>
<path fill="none" stroke="#000000" d="M84.951,-109.8759C81.9296,-96.3516 77.7447,-77.6192 74.2891,-62.1514"/>
<polygon fill="#000000" stroke="#000000" points="77.6328,-61.0648 72.0366,-52.0685 70.8012,-62.5911 77.6328,-61.0648"/>
<text text-anchor="start" x="81" y="-84" font-family="Helvetica,sans-Serif" font-size="10.00" fill="#000000">s_rx_baud_tick = &#39;1&#39; &#160;&#160;</text>
<text text-anchor="start" x="81" y="-72" font-family="Helvetica,sans-Serif" font-size="10.00" fill="#000000">not (r_rx_shift = x&quot;FF&quot;) &#160;&#160;</text>
</g>
<!-- DONE -->
<g id="node7" class="node state regular">
<title>DONE</title>
<polygon fill="#ffffff" fill-opacity="0.003922" stroke="transparent" stroke-width="2" points="429,-52 373,-52 373,-16 429,-16 429,-52"/>
<text text-anchor="start" x="383.6684" y="-30.2" font-family="Helvetica,sans-Serif" font-size="12.00" fill="#000000">DONE</text>
<path fill="none" stroke="#000000" stroke-width="2" d="M385.3333,-17C385.3333,-17 416.6667,-17 416.6667,-17 422.3333,-17 428,-22.6667 428,-28.3333 428,-28.3333 428,-39.6667 428,-39.6667 428,-45.3333 422.3333,-51 416.6667,-51 416.6667,-51 385.3333,-51 385.3333,-51 379.6667,-51 374,-45.3333 374,-39.6667 374,-39.6667 374,-28.3333 374,-28.3333 374,-22.6667 379.6667,-17 385.3333,-17"/>
</g>
<!-- STOP&#45;&gt;DONE -->
<g id="edge6" class="edge transition">
<title>STOP&#45;&gt;DONE</title>
<path fill="none" stroke="#000000" d="M117.2382,-119.4923C173.4806,-102.5475 299.5237,-64.573 362.975,-45.4563"/>
<polygon fill="#000000" stroke="#000000" points="364.0356,-48.7922 372.6008,-42.5562 362.0163,-42.0898 364.0356,-48.7922"/>
<text text-anchor="start" x="283" y="-84" font-family="Helvetica,sans-Serif" font-size="10.00" fill="#000000">r_rx_shift = x&quot;FF&quot; &#160;&#160;</text>
<text text-anchor="start" x="283" y="-72" font-family="Helvetica,sans-Serif" font-size="10.00" fill="#000000">s_rx_baud_tick = &#39;1&#39; &#160;&#160;</text>
</g>
<!-- ERROR&#45;&gt;START -->
<g id="edge8" class="edge transition">
<title>ERROR&#45;&gt;START</title>
<path fill="none" stroke="#000000" d="M49.8568,-52.0341C43.5389,-60.1766 38,-70.3517 38,-81 38,-154.5 38,-154.5 38,-154.5 38,-171.6399 31.014,-174.9788 29,-192 27.12,-207.8892 24.6762,-212.5953 29,-228 32.7456,-241.3447 40.1267,-254.665 47.4693,-265.6707"/>
<polygon fill="#000000" stroke="#000000" points="44.6726,-267.7786 53.2795,-273.957 50.4041,-263.7598 44.6726,-267.7786"/>
<text text-anchor="middle" x="38.3895" y="-166" font-family="Helvetica,sans-Serif" font-size="10.00" fill="#000000"> </text>
</g>
<!-- DONE&#45;&gt;START -->
<g id="edge9" class="edge transition">
<title>DONE&#45;&gt;START</title>
<path fill="none" stroke="#000000" d="M429.01,-40.047C461.8928,-47.9727 512,-63.0026 512,-81 512,-154.5 512,-154.5 512,-154.5 512,-187.4676 525.1809,-204.5584 502,-228 474.4624,-255.8474 211.007,-280.2614 108.5122,-288.7823"/>
<polygon fill="#000000" stroke="#000000" points="108.2169,-285.2947 98.5378,-289.6035 108.7913,-292.2711 108.2169,-285.2947"/>
<text text-anchor="middle" x="514.3895" y="-166" font-family="Helvetica,sans-Serif" font-size="10.00" fill="#000000"> </text>
</g>
</g>
</svg>
