<?xml version="1.0" encoding="UTF-8" standalone="no"?>
<!DOCTYPE svg PUBLIC "-//W3C//DTD SVG 1.1//EN"
 "http://www.w3.org/Graphics/SVG/1.1/DTD/svg11.dtd">
<!-- Generated by graphviz version 2.40.1 (20161225.0304)
 -->
<!-- Title: state transitions Pages: 1 -->
<svg width="565pt" height="446pt"
 viewBox="0.00 0.00 564.73 446.00" xmlns="http://www.w3.org/2000/svg" xmlns:xlink="http://www.w3.org/1999/xlink">
<g id="graph0" class="graph" transform="scale(1 1) rotate(0) translate(4 442)">
<title>state transitions</title>
<polygon fill="#ffffff" stroke="transparent" points="-4,4 -4,-442 560.73,-442 560.73,4 -4,4"/>
<g id="clust1" class="cluster state regular">
<title>cluster_s_tx_fsm</title>
<path fill="none" stroke="#000000" stroke-width="2" d="M20,-8C20,-8 531,-8 531,-8 537,-8 543,-14 543,-20 543,-20 543,-418 543,-418 543,-424 537,-430 531,-430 531,-430 20,-430 20,-430 14,-430 8,-424 8,-418 8,-418 8,-20 8,-20 8,-14 14,-8 20,-8"/>
<text text-anchor="start" x="251.497" y="-411.2" font-family="Helvetica,sans-Serif" font-size="12.00" fill="#000000">s_tx_fsm</text>
</g>
<!-- s_tx_fsm -->
<!-- TX_IDLE -->
<g id="node2" class="node state regular">
<title>TX_IDLE</title>
<polygon fill="#ffffff" fill-opacity="0.003922" stroke="transparent" stroke-width="2" points="415,-392 345,-392 345,-356 415,-356 415,-392"/>
<text text-anchor="start" x="355.6622" y="-370.2" font-family="Helvetica,sans-Serif" font-size="12.00" fill="#000000">TX_IDLE</text>
<path fill="none" stroke="#000000" stroke-width="2" d="M357.3333,-357C357.3333,-357 402.6667,-357 402.6667,-357 408.3333,-357 414,-362.6667 414,-368.3333 414,-368.3333 414,-379.6667 414,-379.6667 414,-385.3333 408.3333,-391 402.6667,-391 402.6667,-391 357.3333,-391 357.3333,-391 351.6667,-391 346,-385.3333 346,-379.6667 346,-379.6667 346,-368.3333 346,-368.3333 346,-362.6667 351.6667,-357 357.3333,-357"/>
</g>
<!-- TX_WAIT_START -->
<g id="node3" class="node state regular">
<title>TX_WAIT_START</title>
<polygon fill="#ffffff" fill-opacity="0.003922" stroke="transparent" stroke-width="2" points="286,-310 166,-310 166,-274 286,-274 286,-310"/>
<text text-anchor="start" x="176.9998" y="-288.2" font-family="Helvetica,sans-Serif" font-size="12.00" fill="#000000">TX_WAIT_START</text>
<path fill="none" stroke="#000000" stroke-width="2" d="M178.3333,-275C178.3333,-275 273.6667,-275 273.6667,-275 279.3333,-275 285,-280.6667 285,-286.3333 285,-286.3333 285,-297.6667 285,-297.6667 285,-303.3333 279.3333,-309 273.6667,-309 273.6667,-309 178.3333,-309 178.3333,-309 172.6667,-309 167,-303.3333 167,-297.6667 167,-297.6667 167,-286.3333 167,-286.3333 167,-280.6667 172.6667,-275 178.3333,-275"/>
</g>
<!-- TX_IDLE&#45;&gt;TX_WAIT_START -->
<g id="edge1" class="edge transition">
<title>TX_IDLE&#45;&gt;TX_WAIT_START</title>
<path fill="none" stroke="#000000" d="M345.8224,-355.8015C323.1144,-343.7103 293.1207,-327.7396 268.8231,-314.8019"/>
<polygon fill="#000000" stroke="#000000" points="270.2885,-311.617 259.8168,-310.0063 266.9985,-317.7957 270.2885,-311.617"/>
<text text-anchor="middle" x="314.3895" y="-330" font-family="Helvetica,sans-Serif" font-size="10.00" fill="#000000"> </text>
</g>
<!-- TX_WAIT_START&#45;&gt;TX_WAIT_START -->
<g id="edge3" class="edge transition">
<title>TX_WAIT_START&#45;&gt;TX_WAIT_START</title>
<path fill="none" stroke="#000000" d="M286.0686,-296.7176C298.8035,-296.2385 308,-294.666 308,-292 308,-290.1255 303.4534,-288.7915 296.327,-287.9982"/>
<polygon fill="#000000" stroke="#000000" points="296.288,-284.487 286.0686,-287.2824 295.8007,-291.4701 296.288,-284.487"/>
<text text-anchor="start" x="308" y="-289" font-family="Helvetica,sans-Serif" font-size="10.00" fill="#000000">not (i_tx_start = &#39;1&#39;) &#160;&#160;</text>
</g>
<!-- TX_START_BIT -->
<g id="node4" class="node state regular">
<title>TX_START_BIT</title>
<polygon fill="#ffffff" fill-opacity="0.003922" stroke="transparent" stroke-width="2" points="192,-228 84,-228 84,-192 192,-192 192,-228"/>
<text text-anchor="start" x="94.6632" y="-206.2" font-family="Helvetica,sans-Serif" font-size="12.00" fill="#000000">TX_START_BIT</text>
<path fill="none" stroke="#000000" stroke-width="2" d="M96.3333,-193C96.3333,-193 179.6667,-193 179.6667,-193 185.3333,-193 191,-198.6667 191,-204.3333 191,-204.3333 191,-215.6667 191,-215.6667 191,-221.3333 185.3333,-227 179.6667,-227 179.6667,-227 96.3333,-227 96.3333,-227 90.6667,-227 85,-221.3333 85,-215.6667 85,-215.6667 85,-204.3333 85,-204.3333 85,-198.6667 90.6667,-193 96.3333,-193"/>
</g>
<!-- TX_WAIT_START&#45;&gt;TX_START_BIT -->
<g id="edge2" class="edge transition">
<title>TX_WAIT_START&#45;&gt;TX_START_BIT</title>
<path fill="none" stroke="#000000" d="M206.4699,-273.8015C194.2794,-262.4422 178.4143,-247.6588 165.0258,-235.1831"/>
<polygon fill="#000000" stroke="#000000" points="167.1776,-232.4042 157.4755,-228.1476 162.4055,-237.5255 167.1776,-232.4042"/>
<text text-anchor="start" x="187" y="-248" font-family="Helvetica,sans-Serif" font-size="10.00" fill="#000000">i_tx_start = &#39;1&#39; &#160;&#160;</text>
</g>
<!-- TX_START_BIT&#45;&gt;TX_START_BIT -->
<g id="edge5" class="edge transition">
<title>TX_START_BIT&#45;&gt;TX_START_BIT</title>
<path fill="none" stroke="#000000" d="M192.3104,-214.7676C204.8147,-214.3568 214,-212.7676 214,-210 214,-208.054 209.4589,-206.6907 202.416,-205.9099"/>
<polygon fill="#000000" stroke="#000000" points="202.5221,-202.4092 192.3104,-205.2324 202.0539,-209.3935 202.5221,-202.4092"/>
<text text-anchor="start" x="214" y="-207" font-family="Helvetica,sans-Serif" font-size="10.00" fill="#000000">not (r_tx_baud_tick = &#39;1&#39;) &#160;&#160;</text>
</g>
<!-- TX_DATA -->
<g id="node5" class="node state regular">
<title>TX_DATA</title>
<polygon fill="#ffffff" fill-opacity="0.003922" stroke="transparent" stroke-width="2" points="92,-146 16,-146 16,-110 92,-110 92,-146"/>
<text text-anchor="start" x="26.9982" y="-124.2" font-family="Helvetica,sans-Serif" font-size="12.00" fill="#000000">TX_DATA</text>
<path fill="none" stroke="#000000" stroke-width="2" d="M28.3333,-111C28.3333,-111 79.6667,-111 79.6667,-111 85.3333,-111 91,-116.6667 91,-122.3333 91,-122.3333 91,-133.6667 91,-133.6667 91,-139.3333 85.3333,-145 79.6667,-145 79.6667,-145 28.3333,-145 28.3333,-145 22.6667,-145 17,-139.3333 17,-133.6667 17,-133.6667 17,-122.3333 17,-122.3333 17,-116.6667 22.6667,-111 28.3333,-111"/>
</g>
<!-- TX_START_BIT&#45;&gt;TX_DATA -->
<g id="edge4" class="edge transition">
<title>TX_START_BIT&#45;&gt;TX_DATA</title>
<path fill="none" stroke="#000000" d="M119.3577,-191.8015C107.7212,-180.4422 92.5773,-165.6588 79.7973,-153.1831"/>
<polygon fill="#000000" stroke="#000000" points="82.1909,-150.6285 72.5902,-146.1476 77.3011,-155.6375 82.1909,-150.6285"/>
<text text-anchor="start" x="101" y="-166" font-family="Helvetica,sans-Serif" font-size="10.00" fill="#000000">r_tx_baud_tick = &#39;1&#39; &#160;&#160;</text>
</g>
<!-- TX_DATA&#45;&gt;TX_DATA -->
<g id="edge7" class="edge transition">
<title>TX_DATA&#45;&gt;TX_DATA</title>
<path fill="none" stroke="#000000" d="M92.0841,-130.4369C104.3101,-130.4119 114,-129.5996 114,-128 114,-126.8753 109.2094,-126.1398 102.1151,-125.7935"/>
<polygon fill="#000000" stroke="#000000" points="102.1619,-122.2938 92.0841,-125.5631 102.001,-129.2919 102.1619,-122.2938"/>
<text text-anchor="start" x="114" y="-131" font-family="Helvetica,sans-Serif" font-size="10.00" fill="#000000">r_tx_baud_tick = &#39;1&#39; &#160;&#160;</text>
<text text-anchor="start" x="114" y="-119" font-family="Helvetica,sans-Serif" font-size="10.00" fill="#000000">not (r_tx_data_cnt = to_unsigned(7, r_tx_data_cnt&#39;length)) &#160;&#160;</text>
</g>
<!-- TX_DATA&#45;&gt;TX_DATA -->
<g id="edge8" class="edge transition">
<title>TX_DATA&#45;&gt;TX_DATA</title>
<path fill="none" stroke="#000000" d="M92.0144,-130.8865C179.4734,-134.2878 379.914,-133.3257 379.914,-128 379.914,-122.8719 194.0738,-121.7896 102.2018,-124.7529"/>
<polygon fill="#000000" stroke="#000000" points="101.8843,-121.2618 92.0144,-125.1135 102.132,-128.2575 101.8843,-121.2618"/>
<text text-anchor="start" x="379.914" y="-125" font-family="Helvetica,sans-Serif" font-size="10.00" fill="#000000">not (r_tx_baud_tick = &#39;1&#39;) &#160;&#160;</text>
</g>
<!-- TX_STOP_BIT -->
<g id="node6" class="node state regular">
<title>TX_STOP_BIT</title>
<polygon fill="#ffffff" fill-opacity="0.003922" stroke="transparent" stroke-width="2" points="259,-52 157,-52 157,-16 259,-16 259,-52"/>
<text text-anchor="start" x="167.9926" y="-30.2" font-family="Helvetica,sans-Serif" font-size="12.00" fill="#000000">TX_STOP_BIT</text>
<path fill="none" stroke="#000000" stroke-width="2" d="M169.3333,-17C169.3333,-17 246.6667,-17 246.6667,-17 252.3333,-17 258,-22.6667 258,-28.3333 258,-28.3333 258,-39.6667 258,-39.6667 258,-45.3333 252.3333,-51 246.6667,-51 246.6667,-51 169.3333,-51 169.3333,-51 163.6667,-51 158,-45.3333 158,-39.6667 158,-39.6667 158,-28.3333 158,-28.3333 158,-22.6667 163.6667,-17 169.3333,-17"/>
</g>
<!-- TX_DATA&#45;&gt;TX_STOP_BIT -->
<g id="edge6" class="edge transition">
<title>TX_DATA&#45;&gt;TX_STOP_BIT</title>
<path fill="none" stroke="#000000" d="M83.6927,-109.8759C108.1931,-94.9211 143.1261,-73.5983 169.7247,-57.3629"/>
<polygon fill="#000000" stroke="#000000" points="171.6864,-60.266 178.3984,-52.0685 168.0393,-54.2911 171.6864,-60.266"/>
<text text-anchor="start" x="150" y="-84" font-family="Helvetica,sans-Serif" font-size="10.00" fill="#000000">r_tx_data_cnt = to_unsigned(7, r_tx_data_cnt&#39;length) &#160;&#160;</text>
<text text-anchor="start" x="150" y="-72" font-family="Helvetica,sans-Serif" font-size="10.00" fill="#000000">r_tx_baud_tick = &#39;1&#39; &#160;&#160;</text>
</g>
<!-- TX_STOP_BIT&#45;&gt;TX_IDLE -->
<g id="edge9" class="edge transition">
<title>TX_STOP_BIT&#45;&gt;TX_IDLE</title>
<path fill="none" stroke="#000000" d="M259.0659,-38.4898C339.9423,-46.8152 491.4903,-67.7779 522,-110 561.242,-164.3066 440,-169.499 440,-236.5 440,-333 440,-333 440,-333 440,-343.9152 433.1473,-352.1354 424.0737,-358.2356"/>
<polygon fill="#000000" stroke="#000000" points="422.2088,-355.2698 415.2493,-363.2583 425.6715,-361.3533 422.2088,-355.2698"/>
<text text-anchor="start" x="462" y="-207" font-family="Helvetica,sans-Serif" font-size="10.00" fill="#000000">r_tx_baud_tick = &#39;1&#39; &#160;&#160;</text>
</g>
<!-- TX_STOP_BIT&#45;&gt;TX_STOP_BIT -->
<g id="edge10" class="edge transition">
<title>TX_STOP_BIT&#45;&gt;TX_STOP_BIT</title>
<path fill="none" stroke="#000000" d="M259.1677,-38.7988C271.6849,-38.4434 281,-36.8438 281,-34 281,-32.0005 276.3948,-30.6161 269.3092,-29.8467"/>
<polygon fill="#000000" stroke="#000000" points="269.3699,-26.3436 259.1677,-29.2012 268.9252,-33.3294 269.3699,-26.3436"/>
<text text-anchor="start" x="281" y="-31" font-family="Helvetica,sans-Serif" font-size="10.00" fill="#000000">not (r_tx_baud_tick = &#39;1&#39;) &#160;&#160;</text>
</g>
</g>
</svg>
