<?xml version="1.0" encoding="UTF-8" standalone="no"?>
<!DOCTYPE svg PUBLIC "-//W3C//DTD SVG 1.1//EN"
 "http://www.w3.org/Graphics/SVG/1.1/DTD/svg11.dtd">
<!-- Generated by graphviz version 2.40.1 (20161225.0304)
 -->
<!-- Title: state transitions Pages: 1 -->
<svg width="640pt" height="680pt"
 viewBox="0.00 0.00 640.41 680.00" xmlns="http://www.w3.org/2000/svg" xmlns:xlink="http://www.w3.org/1999/xlink">
<g id="graph0" class="graph" transform="scale(1 1) rotate(0) translate(4 676)">
<title>state transitions</title>
<polygon fill="#ffffff" stroke="transparent" points="-4,4 -4,-676 636.408,-676 636.408,4 -4,4"/>
<g id="clust1" class="cluster state regular">
<title>cluster_r_arb_fsm</title>
<path fill="none" stroke="#000000" stroke-width="2" d="M20,-8C20,-8 611,-8 611,-8 617,-8 623,-14 623,-20 623,-20 623,-652 623,-652 623,-658 617,-664 611,-664 611,-664 20,-664 20,-664 14,-664 8,-658 8,-652 8,-652 8,-20 8,-20 8,-14 14,-8 20,-8"/>
<text text-anchor="start" x="288.4988" y="-645.2" font-family="Helvetica,sans-Serif" font-size="12.00" fill="#000000">r_arb_fsm</text>
</g>
<!-- r_arb_fsm -->
<!-- IDLE -->
<g id="node2" class="node state regular">
<title>IDLE</title>
<polygon fill="#ffffff" fill-opacity="0.003922" stroke="transparent" stroke-width="2" points="334,-626 278,-626 278,-590 334,-590 334,-626"/>
<text text-anchor="start" x="292.6644" y="-604.2" font-family="Helvetica,sans-Serif" font-size="12.00" fill="#000000">IDLE</text>
<path fill="none" stroke="#000000" stroke-width="2" d="M290.3333,-591C290.3333,-591 321.6667,-591 321.6667,-591 327.3333,-591 333,-596.6667 333,-602.3333 333,-602.3333 333,-613.6667 333,-613.6667 333,-619.3333 327.3333,-625 321.6667,-625 321.6667,-625 290.3333,-625 290.3333,-625 284.6667,-625 279,-619.3333 279,-613.6667 279,-613.6667 279,-602.3333 279,-602.3333 279,-596.6667 284.6667,-591 290.3333,-591"/>
</g>
<!-- WAIT_CMD -->
<g id="node3" class="node state regular">
<title>WAIT_CMD</title>
<polygon fill="#ffffff" fill-opacity="0.003922" stroke="transparent" stroke-width="2" points="348.5,-544 263.5,-544 263.5,-508 348.5,-508 348.5,-544"/>
<text text-anchor="start" x="274.5068" y="-522.2" font-family="Helvetica,sans-Serif" font-size="12.00" fill="#000000">WAIT_CMD</text>
<path fill="none" stroke="#000000" stroke-width="2" d="M275.8333,-509C275.8333,-509 336.1667,-509 336.1667,-509 341.8333,-509 347.5,-514.6667 347.5,-520.3333 347.5,-520.3333 347.5,-531.6667 347.5,-531.6667 347.5,-537.3333 341.8333,-543 336.1667,-543 336.1667,-543 275.8333,-543 275.8333,-543 270.1667,-543 264.5,-537.3333 264.5,-531.6667 264.5,-531.6667 264.5,-520.3333 264.5,-520.3333 264.5,-514.6667 270.1667,-509 275.8333,-509"/>
</g>
<!-- IDLE&#45;&gt;WAIT_CMD -->
<g id="edge1" class="edge transition">
<title>IDLE&#45;&gt;WAIT_CMD</title>
<path fill="none" stroke="#000000" d="M306,-589.8015C306,-579.3976 306,-566.1215 306,-554.3768"/>
<polygon fill="#000000" stroke="#000000" points="309.5001,-554.1476 306,-544.1476 302.5001,-554.1476 309.5001,-554.1476"/>
<text text-anchor="middle" x="307.3895" y="-564" font-family="Helvetica,sans-Serif" font-size="10.00" fill="#000000"> </text>
</g>
<!-- WAIT_CMD&#45;&gt;WAIT_CMD -->
<g id="edge4" class="edge transition">
<title>WAIT_CMD&#45;&gt;WAIT_CMD</title>
<path fill="none" stroke="#000000" d="M348.7986,-530.856C361.0518,-530.6655 370.5,-529.0469 370.5,-526 370.5,-523.8577 365.8289,-522.4214 358.7961,-521.6913"/>
<polygon fill="#000000" stroke="#000000" points="358.9749,-518.1959 348.7986,-521.144 358.5923,-525.1855 358.9749,-518.1959"/>
<text text-anchor="start" x="370.5" y="-529" font-family="Helvetica,sans-Serif" font-size="10.00" fill="#000000">not (i_uart_rx_data = x&quot;4B&quot; and i_uart_rx_vld = &#39;1&#39;) &#160;&#160;</text>
<text text-anchor="start" x="370.5" y="-517" font-family="Helvetica,sans-Serif" font-size="10.00" fill="#000000">not (i_uart_rx_data = x&quot;B4&quot; and i_uart_rx_vld = &#39;1&#39;) &#160;&#160;</text>
</g>
<!-- WADDR -->
<g id="node4" class="node state regular">
<title>WADDR</title>
<polygon fill="#ffffff" fill-opacity="0.003922" stroke="transparent" stroke-width="2" points="311.5,-462 244.5,-462 244.5,-426 311.5,-426 311.5,-462"/>
<text text-anchor="start" x="255.841" y="-440.2" font-family="Helvetica,sans-Serif" font-size="12.00" fill="#000000">WADDR</text>
<path fill="none" stroke="#000000" stroke-width="2" d="M256.8333,-427C256.8333,-427 299.1667,-427 299.1667,-427 304.8333,-427 310.5,-432.6667 310.5,-438.3333 310.5,-438.3333 310.5,-449.6667 310.5,-449.6667 310.5,-455.3333 304.8333,-461 299.1667,-461 299.1667,-461 256.8333,-461 256.8333,-461 251.1667,-461 245.5,-455.3333 245.5,-449.6667 245.5,-449.6667 245.5,-438.3333 245.5,-438.3333 245.5,-432.6667 251.1667,-427 256.8333,-427"/>
</g>
<!-- WAIT_CMD&#45;&gt;WADDR -->
<g id="edge2" class="edge transition">
<title>WAIT_CMD&#45;&gt;WADDR</title>
<path fill="none" stroke="#000000" d="M299.7859,-507.8015C296.1608,-497.1853 291.5146,-483.5784 287.4448,-471.6596"/>
<polygon fill="#000000" stroke="#000000" points="290.7405,-470.4801 284.1967,-462.1476 284.116,-472.7421 290.7405,-470.4801"/>
<text text-anchor="start" x="293" y="-482" font-family="Helvetica,sans-Serif" font-size="10.00" fill="#000000">i_uart_rx_data = x&quot;4B&quot; and i_uart_rx_vld = &#39;1&#39; &#160;&#160;</text>
</g>
<!-- RADDR -->
<g id="node8" class="node state regular">
<title>RADDR</title>
<polygon fill="#ffffff" fill-opacity="0.003922" stroke="transparent" stroke-width="2" points="80,-462 16,-462 16,-426 80,-426 80,-462"/>
<text text-anchor="start" x="26.673" y="-440.2" font-family="Helvetica,sans-Serif" font-size="12.00" fill="#000000">RADDR</text>
<path fill="none" stroke="#000000" stroke-width="2" d="M28.3333,-427C28.3333,-427 67.6667,-427 67.6667,-427 73.3333,-427 79,-432.6667 79,-438.3333 79,-438.3333 79,-449.6667 79,-449.6667 79,-455.3333 73.3333,-461 67.6667,-461 67.6667,-461 28.3333,-461 28.3333,-461 22.6667,-461 17,-455.3333 17,-449.6667 17,-449.6667 17,-438.3333 17,-438.3333 17,-432.6667 22.6667,-427 28.3333,-427"/>
</g>
<!-- WAIT_CMD&#45;&gt;RADDR -->
<g id="edge3" class="edge transition">
<title>WAIT_CMD&#45;&gt;RADDR</title>
<path fill="none" stroke="#000000" d="M263.3064,-523.8044C205.4737,-520.1128 106.0244,-511.0069 76.195,-491 69.0828,-486.2298 63.4866,-479.0046 59.2194,-471.6401"/>
<polygon fill="#000000" stroke="#000000" points="62.1735,-469.7288 54.5111,-462.4117 55.9381,-472.91 62.1735,-469.7288"/>
<text text-anchor="start" x="76" y="-482" font-family="Helvetica,sans-Serif" font-size="10.00" fill="#000000">i_uart_rx_data = x&quot;B4&quot; and i_uart_rx_vld = &#39;1&#39; &#160;&#160;</text>
</g>
<!-- WADDR&#45;&gt;WADDR -->
<g id="edge6" class="edge transition">
<title>WADDR&#45;&gt;WADDR</title>
<path fill="none" stroke="#000000" d="M311.597,-448.8702C323.6628,-448.975 333.5,-447.3516 333.5,-444 333.5,-441.6958 328.8504,-440.2084 322.0236,-439.5379"/>
<polygon fill="#000000" stroke="#000000" points="321.7262,-436.0236 311.597,-439.1298 321.4524,-443.0183 321.7262,-436.0236"/>
<text text-anchor="start" x="333.5" y="-441" font-family="Helvetica,sans-Serif" font-size="10.00" fill="#000000">not (i_uart_rx_vld = &#39;1&#39;) &#160;&#160;</text>
</g>
<!-- WLEN -->
<g id="node5" class="node state regular">
<title>WLEN</title>
<polygon fill="#ffffff" fill-opacity="0.003922" stroke="transparent" stroke-width="2" points="285,-380 229,-380 229,-344 285,-344 285,-380"/>
<text text-anchor="start" x="239.6684" y="-358.2" font-family="Helvetica,sans-Serif" font-size="12.00" fill="#000000">WLEN</text>
<path fill="none" stroke="#000000" stroke-width="2" d="M241.3333,-345C241.3333,-345 272.6667,-345 272.6667,-345 278.3333,-345 284,-350.6667 284,-356.3333 284,-356.3333 284,-367.6667 284,-367.6667 284,-373.3333 278.3333,-379 272.6667,-379 272.6667,-379 241.3333,-379 241.3333,-379 235.6667,-379 230,-373.3333 230,-367.6667 230,-367.6667 230,-356.3333 230,-356.3333 230,-350.6667 235.6667,-345 241.3333,-345"/>
</g>
<!-- WADDR&#45;&gt;WLEN -->
<g id="edge5" class="edge transition">
<title>WADDR&#45;&gt;WLEN</title>
<path fill="none" stroke="#000000" d="M273.3394,-425.8015C270.6478,-415.2915 267.2056,-401.8503 264.1753,-390.0177"/>
<polygon fill="#000000" stroke="#000000" points="267.5191,-388.9666 261.6476,-380.1476 260.738,-390.7033 267.5191,-388.9666"/>
<text text-anchor="start" x="268" y="-400" font-family="Helvetica,sans-Serif" font-size="10.00" fill="#000000">i_uart_rx_vld = &#39;1&#39; &#160;&#160;</text>
</g>
<!-- WLEN&#45;&gt;WLEN -->
<g id="edge8" class="edge transition">
<title>WLEN&#45;&gt;WLEN</title>
<path fill="none" stroke="#000000" d="M285.0183,-366.8247C296.888,-367.1883 307,-365.5801 307,-362 307,-359.5387 302.2205,-358.0094 295.3762,-357.4121"/>
<polygon fill="#000000" stroke="#000000" points="295.0957,-353.9049 285.0183,-357.1753 294.9356,-360.903 295.0957,-353.9049"/>
<text text-anchor="start" x="307" y="-359" font-family="Helvetica,sans-Serif" font-size="10.00" fill="#000000">not (i_uart_rx_vld = &#39;1&#39;) &#160;&#160;</text>
</g>
<!-- WDATA -->
<g id="node6" class="node state regular">
<title>WDATA</title>
<polygon fill="#ffffff" fill-opacity="0.003922" stroke="transparent" stroke-width="2" points="165.5,-298 100.5,-298 100.5,-262 165.5,-262 165.5,-298"/>
<text text-anchor="start" x="111.837" y="-276.2" font-family="Helvetica,sans-Serif" font-size="12.00" fill="#000000">WDATA</text>
<path fill="none" stroke="#000000" stroke-width="2" d="M112.8333,-263C112.8333,-263 153.1667,-263 153.1667,-263 158.8333,-263 164.5,-268.6667 164.5,-274.3333 164.5,-274.3333 164.5,-285.6667 164.5,-285.6667 164.5,-291.3333 158.8333,-297 153.1667,-297 153.1667,-297 112.8333,-297 112.8333,-297 107.1667,-297 101.5,-291.3333 101.5,-285.6667 101.5,-285.6667 101.5,-274.3333 101.5,-274.3333 101.5,-268.6667 107.1667,-263 112.8333,-263"/>
</g>
<!-- WLEN&#45;&gt;WDATA -->
<g id="edge7" class="edge transition">
<title>WLEN&#45;&gt;WDATA</title>
<path fill="none" stroke="#000000" d="M229.4804,-343.8015C211.6606,-332.0175 188.2688,-316.5487 168.9811,-303.7939"/>
<polygon fill="#000000" stroke="#000000" points="170.7144,-300.7441 160.4427,-298.1476 166.8533,-306.583 170.7144,-300.7441"/>
<text text-anchor="start" x="203" y="-318" font-family="Helvetica,sans-Serif" font-size="10.00" fill="#000000">i_uart_rx_vld = &#39;1&#39; &#160;&#160;</text>
</g>
<!-- WDATA&#45;&gt;WDATA -->
<g id="edge10" class="edge transition">
<title>WDATA&#45;&gt;WDATA</title>
<path fill="none" stroke="#000000" d="M165.7219,-284.8676C177.6932,-284.9995 187.5,-283.377 187.5,-280 187.5,-277.6783 182.8647,-276.1859 176.0776,-275.5228"/>
<polygon fill="#000000" stroke="#000000" points="175.8467,-272.0117 165.7219,-275.1324 175.583,-279.0067 175.8467,-272.0117"/>
<text text-anchor="start" x="187.5" y="-277" font-family="Helvetica,sans-Serif" font-size="10.00" fill="#000000">not (i_uart_rx_vld = &#39;1&#39; and r_wdata_cnt = r_wdata_len) &#160;&#160;</text>
</g>
<!-- WEOP -->
<g id="node7" class="node state regular">
<title>WEOP</title>
<polygon fill="#ffffff" fill-opacity="0.003922" stroke="transparent" stroke-width="2" points="347,-216 289,-216 289,-180 347,-180 347,-216"/>
<text text-anchor="start" x="299.6664" y="-194.2" font-family="Helvetica,sans-Serif" font-size="12.00" fill="#000000">WEOP</text>
<path fill="none" stroke="#000000" stroke-width="2" d="M301.3333,-181C301.3333,-181 334.6667,-181 334.6667,-181 340.3333,-181 346,-186.6667 346,-192.3333 346,-192.3333 346,-203.6667 346,-203.6667 346,-209.3333 340.3333,-215 334.6667,-215 334.6667,-215 301.3333,-215 301.3333,-215 295.6667,-215 290,-209.3333 290,-203.6667 290,-203.6667 290,-192.3333 290,-192.3333 290,-186.6667 295.6667,-181 301.3333,-181"/>
</g>
<!-- WDATA&#45;&gt;WEOP -->
<g id="edge9" class="edge transition">
<title>WDATA&#45;&gt;WEOP</title>
<path fill="none" stroke="#000000" d="M165.1601,-261.9483C182.2263,-252.7163 203.71,-241.6371 223.509,-233 244.0575,-224.0359 249.9773,-223.7872 271,-216 273.7269,-214.9899 276.5392,-213.9382 279.3685,-212.8728"/>
<polygon fill="#000000" stroke="#000000" points="280.8449,-216.0562 288.9545,-209.2383 278.3632,-209.5109 280.8449,-216.0562"/>
<text text-anchor="start" x="223" y="-236" font-family="Helvetica,sans-Serif" font-size="10.00" fill="#000000">i_uart_rx_vld = &#39;1&#39; and r_wdata_cnt = r_wdata_len &#160;&#160;</text>
</g>
<!-- WEOP&#45;&gt;WAIT_CMD -->
<g id="edge11" class="edge transition">
<title>WEOP&#45;&gt;WAIT_CMD</title>
<path fill="none" stroke="#000000" d="M347.2153,-200.5546C388.5151,-204.9861 459,-215.9288 459,-239 459,-335.5 459,-335.5 459,-335.5 459,-402.7511 496.1929,-412.6229 507,-479 507.8571,-484.264 510.4326,-486.9181 507,-491 488.4062,-513.1114 411.896,-521.2548 358.8286,-524.2534"/>
<polygon fill="#000000" stroke="#000000" points="358.3567,-520.7731 348.5518,-524.7871 358.7199,-527.7636 358.3567,-520.7731"/>
<text text-anchor="start" x="465" y="-359" font-family="Helvetica,sans-Serif" font-size="10.00" fill="#000000">i_uart_rx_vld = &#39;1&#39; &#160;&#160;</text>
</g>
<!-- WEOP&#45;&gt;WEOP -->
<g id="edge12" class="edge transition">
<title>WEOP&#45;&gt;WEOP</title>
<path fill="none" stroke="#000000" d="M347.0927,-202.839C358.9763,-203.1423 369,-201.5293 369,-198 369,-195.5736 364.2622,-194.053 357.4395,-193.4381"/>
<polygon fill="#000000" stroke="#000000" points="357.1828,-189.93 347.0927,-193.161 356.9954,-196.9275 357.1828,-189.93"/>
<text text-anchor="start" x="369" y="-195" font-family="Helvetica,sans-Serif" font-size="10.00" fill="#000000">not (i_uart_rx_vld = &#39;1&#39;) &#160;&#160;</text>
</g>
<!-- RADDR&#45;&gt;RADDR -->
<g id="edge14" class="edge transition">
<title>RADDR&#45;&gt;RADDR</title>
<path fill="none" stroke="#000000" d="M80.1538,-448.8643C92.1365,-449.0238 102,-447.4023 102,-444 102,-441.6609 97.3379,-440.1635 90.5304,-439.5079"/>
<polygon fill="#000000" stroke="#000000" points="90.2729,-435.9966 80.1538,-439.1357 90.0219,-442.9921 90.2729,-435.9966"/>
<text text-anchor="start" x="102" y="-441" font-family="Helvetica,sans-Serif" font-size="10.00" fill="#000000">not (i_uart_rx_vld = &#39;1&#39;) &#160;&#160;</text>
</g>
<!-- RLEN -->
<g id="node9" class="node state regular">
<title>RLEN</title>
<polygon fill="#ffffff" fill-opacity="0.003922" stroke="transparent" stroke-width="2" points="76,-380 20,-380 20,-344 76,-344 76,-380"/>
<text text-anchor="start" x="32.0004" y="-358.2" font-family="Helvetica,sans-Serif" font-size="12.00" fill="#000000">RLEN</text>
<path fill="none" stroke="#000000" stroke-width="2" d="M32.3333,-345C32.3333,-345 63.6667,-345 63.6667,-345 69.3333,-345 75,-350.6667 75,-356.3333 75,-356.3333 75,-367.6667 75,-367.6667 75,-373.3333 69.3333,-379 63.6667,-379 63.6667,-379 32.3333,-379 32.3333,-379 26.6667,-379 21,-373.3333 21,-367.6667 21,-367.6667 21,-356.3333 21,-356.3333 21,-350.6667 26.6667,-345 32.3333,-345"/>
</g>
<!-- RADDR&#45;&gt;RLEN -->
<g id="edge13" class="edge transition">
<title>RADDR&#45;&gt;RLEN</title>
<path fill="none" stroke="#000000" d="M48,-425.8015C48,-415.3976 48,-402.1215 48,-390.3768"/>
<polygon fill="#000000" stroke="#000000" points="51.5001,-390.1476 48,-380.1476 44.5001,-390.1476 51.5001,-390.1476"/>
<text text-anchor="start" x="48" y="-400" font-family="Helvetica,sans-Serif" font-size="10.00" fill="#000000">i_uart_rx_vld = &#39;1&#39; &#160;&#160;</text>
</g>
<!-- RLEN&#45;&gt;RLEN -->
<g id="edge16" class="edge transition">
<title>RLEN&#45;&gt;RLEN</title>
<path fill="none" stroke="#000000" d="M76.0183,-366.8247C87.888,-367.1883 98,-365.5801 98,-362 98,-359.5387 93.2205,-358.0094 86.3762,-357.4121"/>
<polygon fill="#000000" stroke="#000000" points="86.0957,-353.9049 76.0183,-357.1753 85.9356,-360.903 86.0957,-353.9049"/>
<text text-anchor="start" x="98" y="-359" font-family="Helvetica,sans-Serif" font-size="10.00" fill="#000000">not (i_uart_rx_vld = &#39;1&#39;) &#160;&#160;</text>
</g>
<!-- RRPLY -->
<g id="node10" class="node state regular">
<title>RRPLY</title>
<polygon fill="#ffffff" fill-opacity="0.003922" stroke="transparent" stroke-width="2" points="78,-298 16,-298 16,-262 78,-262 78,-298"/>
<text text-anchor="start" x="26.999" y="-276.2" font-family="Helvetica,sans-Serif" font-size="12.00" fill="#000000">RRPLY</text>
<path fill="none" stroke="#000000" stroke-width="2" d="M28.3333,-263C28.3333,-263 65.6667,-263 65.6667,-263 71.3333,-263 77,-268.6667 77,-274.3333 77,-274.3333 77,-285.6667 77,-285.6667 77,-291.3333 71.3333,-297 65.6667,-297 65.6667,-297 28.3333,-297 28.3333,-297 22.6667,-297 17,-291.3333 17,-285.6667 17,-285.6667 17,-274.3333 17,-274.3333 17,-268.6667 22.6667,-263 28.3333,-263"/>
</g>
<!-- RLEN&#45;&gt;RRPLY -->
<g id="edge15" class="edge transition">
<title>RLEN&#45;&gt;RRPLY</title>
<path fill="none" stroke="#000000" d="M47.7781,-343.8015C47.6512,-333.3976 47.4893,-320.1215 47.3461,-308.3768"/>
<polygon fill="#000000" stroke="#000000" points="50.8431,-308.1041 47.2213,-298.1476 43.8436,-308.1896 50.8431,-308.1041"/>
<text text-anchor="start" x="47" y="-318" font-family="Helvetica,sans-Serif" font-size="10.00" fill="#000000">i_uart_rx_vld = &#39;1&#39; &#160;&#160;</text>
</g>
<!-- WAIT_BUSY -->
<g id="node11" class="node state regular">
<title>WAIT_BUSY</title>
<polygon fill="#ffffff" fill-opacity="0.003922" stroke="transparent" stroke-width="2" points="107.5,-216 16.5,-216 16.5,-180 107.5,-180 107.5,-216"/>
<text text-anchor="start" x="27.8314" y="-194.2" font-family="Helvetica,sans-Serif" font-size="12.00" fill="#000000">WAIT_BUSY</text>
<path fill="none" stroke="#000000" stroke-width="2" d="M28.8333,-181C28.8333,-181 95.1667,-181 95.1667,-181 100.8333,-181 106.5,-186.6667 106.5,-192.3333 106.5,-192.3333 106.5,-203.6667 106.5,-203.6667 106.5,-209.3333 100.8333,-215 95.1667,-215 95.1667,-215 28.8333,-215 28.8333,-215 23.1667,-215 17.5,-209.3333 17.5,-203.6667 17.5,-203.6667 17.5,-192.3333 17.5,-192.3333 17.5,-186.6667 23.1667,-181 28.8333,-181"/>
</g>
<!-- RRPLY&#45;&gt;WAIT_BUSY -->
<g id="edge17" class="edge transition">
<title>RRPLY&#45;&gt;WAIT_BUSY</title>
<path fill="none" stroke="#000000" d="M50.329,-261.8015C52.2516,-251.2915 54.7103,-237.8503 56.8748,-226.0177"/>
<polygon fill="#000000" stroke="#000000" points="60.3237,-226.6142 58.6803,-216.1476 53.438,-225.3545 60.3237,-226.6142"/>
<text text-anchor="middle" x="56.3895" y="-236" font-family="Helvetica,sans-Serif" font-size="10.00" fill="#000000"> </text>
</g>
<!-- WAIT_BUSY&#45;&gt;WAIT_BUSY -->
<g id="edge19" class="edge transition">
<title>WAIT_BUSY&#45;&gt;WAIT_BUSY</title>
<path fill="none" stroke="#000000" d="M107.7453,-202.839C120.1005,-202.5837 129.5,-200.9707 129.5,-198 129.5,-195.9112 124.853,-194.4937 117.7991,-193.7474"/>
<polygon fill="#000000" stroke="#000000" points="117.9322,-190.2493 107.7453,-193.161 117.5245,-197.2374 117.9322,-190.2493"/>
<text text-anchor="start" x="129.5" y="-195" font-family="Helvetica,sans-Serif" font-size="10.00" fill="#000000">not (s_fe_uart_tx_busy = &#39;0&#39;) &#160;&#160;</text>
</g>
<!-- RDATA -->
<g id="node12" class="node state regular">
<title>RDATA</title>
<polygon fill="#ffffff" fill-opacity="0.003922" stroke="transparent" stroke-width="2" points="242,-134 180,-134 180,-98 242,-98 242,-134"/>
<text text-anchor="start" x="190.669" y="-112.2" font-family="Helvetica,sans-Serif" font-size="12.00" fill="#000000">RDATA</text>
<path fill="none" stroke="#000000" stroke-width="2" d="M192.3333,-99C192.3333,-99 229.6667,-99 229.6667,-99 235.3333,-99 241,-104.6667 241,-110.3333 241,-110.3333 241,-121.6667 241,-121.6667 241,-127.3333 235.3333,-133 229.6667,-133 229.6667,-133 192.3333,-133 192.3333,-133 186.6667,-133 181,-127.3333 181,-121.6667 181,-121.6667 181,-110.3333 181,-110.3333 181,-104.6667 186.6667,-99 192.3333,-99"/>
</g>
<!-- WAIT_BUSY&#45;&gt;RDATA -->
<g id="edge18" class="edge transition">
<title>WAIT_BUSY&#45;&gt;RDATA</title>
<path fill="none" stroke="#000000" d="M61.7304,-179.789C62.5565,-170.0522 65.2373,-158.5486 72.592,-151 86.0125,-137.2256 134.0209,-127.2899 169.7529,-121.6004"/>
<polygon fill="#000000" stroke="#000000" points="170.5765,-125.0151 179.9305,-120.0401 169.5156,-118.096 170.5765,-125.0151"/>
<text text-anchor="start" x="72" y="-154" font-family="Helvetica,sans-Serif" font-size="10.00" fill="#000000">s_fe_uart_tx_busy = &#39;0&#39; &#160;&#160;</text>
</g>
<!-- RDATA&#45;&gt;WAIT_BUSY -->
<g id="edge21" class="edge transition">
<title>RDATA&#45;&gt;WAIT_BUSY</title>
<path fill="none" stroke="#000000" d="M204.8123,-134.3964C200.6418,-144.1912 194.1996,-155.6911 185,-163 174.2012,-171.5794 144.9132,-180.0751 117.6259,-186.5475"/>
<polygon fill="#000000" stroke="#000000" points="116.6585,-183.1787 107.7011,-188.8369 118.232,-189.9995 116.6585,-183.1787"/>
<text text-anchor="start" x="195" y="-154" font-family="Helvetica,sans-Serif" font-size="10.00" fill="#000000">not (s_fe_uart_tx_busy = &#39;1&#39; and r_rdata_cnt = r_rdata_len) &#160;&#160;</text>
</g>
<!-- REOP -->
<g id="node13" class="node state regular">
<title>REOP</title>
<polygon fill="#ffffff" fill-opacity="0.003922" stroke="transparent" stroke-width="2" points="351,-52 295,-52 295,-16 351,-16 351,-52"/>
<text text-anchor="start" x="305.9984" y="-30.2" font-family="Helvetica,sans-Serif" font-size="12.00" fill="#000000">REOP</text>
<path fill="none" stroke="#000000" stroke-width="2" d="M307.3333,-17C307.3333,-17 338.6667,-17 338.6667,-17 344.3333,-17 350,-22.6667 350,-28.3333 350,-28.3333 350,-39.6667 350,-39.6667 350,-45.3333 344.3333,-51 338.6667,-51 338.6667,-51 307.3333,-51 307.3333,-51 301.6667,-51 296,-45.3333 296,-39.6667 296,-39.6667 296,-28.3333 296,-28.3333 296,-22.6667 301.6667,-17 307.3333,-17"/>
</g>
<!-- RDATA&#45;&gt;REOP -->
<g id="edge20" class="edge transition">
<title>RDATA&#45;&gt;REOP</title>
<path fill="none" stroke="#000000" d="M223.8985,-97.9214C231.2945,-88.4604 241.2037,-77.1777 251.821,-69 261.9636,-61.1879 274.1268,-54.4339 285.5054,-48.9998"/>
<polygon fill="#000000" stroke="#000000" points="287.1723,-52.0865 294.8174,-44.7514 284.2667,-45.718 287.1723,-52.0865"/>
<text text-anchor="start" x="251" y="-72" font-family="Helvetica,sans-Serif" font-size="10.00" fill="#000000">s_fe_uart_tx_busy = &#39;1&#39; and r_rdata_cnt = r_rdata_len &#160;&#160;</text>
</g>
<!-- REOP&#45;&gt;WAIT_CMD -->
<g id="edge22" class="edge transition">
<title>REOP&#45;&gt;WAIT_CMD</title>
<path fill="none" stroke="#000000" d="M351.2813,-37.5065C402.1875,-44.2048 504,-59.5345 504,-75 504,-253.5 504,-253.5 504,-253.5 504,-300.1121 538.9947,-301.0058 557,-344 564.9126,-362.8943 569,-368.0157 569,-388.5 569,-485 569,-485 569,-485 569,-506.047 435.8066,-517.902 358.9927,-522.9889"/>
<polygon fill="#000000" stroke="#000000" points="358.302,-519.526 348.5478,-523.662 358.7522,-526.5115 358.302,-519.526"/>
<text text-anchor="start" x="521" y="-277" font-family="Helvetica,sans-Serif" font-size="10.00" fill="#000000">s_fe_uart_tx_busy = &#39;1&#39; &#160;&#160;</text>
</g>
<!-- REOP&#45;&gt;REOP -->
<g id="edge23" class="edge transition">
<title>REOP&#45;&gt;REOP</title>
<path fill="none" stroke="#000000" d="M351.0183,-38.8247C362.888,-39.1883 373,-37.5801 373,-34 373,-31.5387 368.2205,-30.0094 361.3762,-29.4121"/>
<polygon fill="#000000" stroke="#000000" points="361.0957,-25.9049 351.0183,-29.1753 360.9356,-32.903 361.0957,-25.9049"/>
<text text-anchor="start" x="373" y="-31" font-family="Helvetica,sans-Serif" font-size="10.00" fill="#000000">not (s_fe_uart_tx_busy = &#39;1&#39;) &#160;&#160;</text>
</g>
</g>
</svg>
